HIERARCHY
ROOT Hips
{
  OFFSET -187.679 86.5976 -156.378
  CHANNELS 6 Xposition Yposition Zposition Zrotation Xrotation Yrotation
  JOINT LeftUpLeg
  {
    OFFSET 8.64259 1.95398 -2.38835
    CHANNELS 3 Zrotation Xrotation Yrotation
    JOINT LeftLeg
    {
      OFFSET 43.7702 0 0
      CHANNELS 3 Zrotation Xrotation Yrotation
      JOINT LeftFoot
      {
        OFFSET 40.6238 0 0
        CHANNELS 3 Zrotation Xrotation Yrotation
        JOINT LeftToeBase
        {
          OFFSET 12.7242 0 0
          CHANNELS 3 Zrotation Xrotation Yrotation
          End Site
          {
            OFFSET 0 0 0
          }
        }
      }
    }
  }
  JOINT RightUpLeg
  {
    OFFSET -8.2249 1.95398 -2.59336
    CHANNELS 3 Zrotation Xrotation Yrotation
    JOINT RightLeg
    {
      OFFSET 43.5653 0 0
      CHANNELS 3 Zrotation Xrotation Yrotation
      JOINT RightFoot
      {
        OFFSET 40.6238 0 0
        CHANNELS 3 Zrotation Xrotation Yrotation
        JOINT RightToeBase
        {
          OFFSET 12.7242 0 0
          CHANNELS 3 Zrotation Xrotation Yrotation
          End Site
          {
            OFFSET 0 0 0
          }
        }
      }
    }
  }
  JOINT Spine
  {
    OFFSET 0.165834 0.87714 6.61349
    CHANNELS 3 Zrotation Xrotation Yrotation
    JOINT Spine1
    {
      OFFSET 7.38963 1.71661e-005 0
      CHANNELS 3 Zrotation Xrotation Yrotation
      JOINT Spine2
      {
        OFFSET 11.9445 1.14441e-005 0
        CHANNELS 3 Zrotation Xrotation Yrotation
        JOINT Spine3
        {
          OFFSET 14.7254 4.19617e-005 0
          CHANNELS 3 Zrotation Xrotation Yrotation
          JOINT Spine4
          {
            OFFSET 10.9679 0 0
            CHANNELS 3 Zrotation Xrotation Yrotation
            JOINT RightShoulder
            {
              OFFSET 2.46616 -1.6653 3.69651
              CHANNELS 3 Zrotation Xrotation Yrotation
              JOINT RightArm
              {
                OFFSET 13.0012 0 0
                CHANNELS 3 Zrotation Xrotation Yrotation
                JOINT RightForeArm
                {
                  OFFSET 28.7848 1.52588e-005 0
                  CHANNELS 3 Zrotation Xrotation Yrotation
                  JOINT RightHand
                  {
                    OFFSET 26.5688 1.52588e-005 0
                    CHANNELS 3 Zrotation Xrotation Yrotation
                    End Site
                    {
                      OFFSET 0 0 0
                    }
                  }
                }
              }
            }
            JOINT LeftShoulder
            {
              OFFSET 2.38034 -1.29275 -3.7523
              CHANNELS 3 Zrotation Xrotation Yrotation
              JOINT LeftArm
              {
                OFFSET 16.3182 6.10352e-005 0
                CHANNELS 3 Zrotation Xrotation Yrotation
                JOINT LeftForeArm
                {
                  OFFSET 27.0901 0 0
                  CHANNELS 3 Zrotation Xrotation Yrotation
                  JOINT LeftHand
                  {
                    OFFSET 24.5451 1.52588e-005 0
                    CHANNELS 3 Zrotation Xrotation Yrotation
                    End Site
                    {
                      OFFSET 0 0 0
                    }
                  }
                }
              }
            }
            JOINT Neck
            {
              OFFSET 5.0226 -0.0266342 0
              CHANNELS 3 Zrotation Xrotation Yrotation
              JOINT Head
              {
                OFFSET 6.69363 2.86102e-005 0
                CHANNELS 3 Zrotation Xrotation Yrotation
                End Site
                {
                  OFFSET 0 0 0
                }
              }
            }
          }
        }
      }
    }
  }
}
MOTION
Frames:	6
Frame Time:	0.0416667
-255.23 87.5541 -213.507 93.8142 12.7946 92.4414 178.044 19.8069 97.2162 -95.0252 56.5139 34.6654 87.7715 17.946 2.90374 16.8697 0.28957 -11.4534 156.326 -22.2654 105.162 -88.4656 18.9253 32.5865 67.7696 -6.23833 -2.39369 18.88 -3.43928 4.8749 -4.34759 9.5619 -90.6105 7.72839 -8.94542 -0.735735 -3.91152 -8.96906 -0.338096 -26.6678 -8.30787 -3.40847 -6.65513 -8.30789 -3.40849 86.7692 -48.3512 -106.02 3.54574 39.346 0.958175 40.5509 -14.2846 -93.4951 -49.5186 20.621 -48.5706 -89.1452 -34.2327 76.4327 -6.17448 17.1963 -20.5665 151.95 19.2676 -77.9965 22.6976 -14.9361 -64.9478 30.1511 -8.94543 -14.6872 6.98556 -2.33788 3.94731 
-250.703 89.2619 -210.56 93.5059 12.0228 92.975 177.515 13.0645 100.029 -86.2984 55.3299 34.1878 90.5592 16.6715 1.23703 15.5284 -0.455439 -10.6229 146.497 -13.0579 96.3348 -95.1532 14.6975 20.9811 72.9118 -5.81498 -1.21419 24.8584 -4.33249 11.3707 -4.81755 9.53472 -90.6404 7.78143 -9.89672 -0.738815 -3.85139 -9.91952 -0.298151 -26.6594 -9.21322 -3.70412 -6.64676 -9.21322 -3.70413 87.673 -47.4889 -104.872 8.65951 33.9156 -1.45407 39.085 -15.0996 -96.6165 -47.6619 19.3838 -47.8062 -88.5039 -32.8491 77.2025 -6.89328 18.2079 -19.9248 148.691 23.4442 -76.5552 21.9776 -14.5178 -65.0073 29.7965 -6.55057 -13.4535 6.08712 -0.733872 2.44159 
-246.934 91.0237 -207.614 91.6215 6.42247 95.6058 -178.814 8.007 104.28 -72.0844 52.8249 28.3745 90.3914 14.9993 -0.189066 17.5925 1.19394 -13.1151 144.49 -1.84535 97.022 -98.3207 13.2601 11.7798 79.6682 -6.03484 -2.36829 39.7065 -0.461975 11.0434 -4.5642 9.34781 -90.973 8.133 -9.53723 -1.36658 -3.50289 -9.58805 -0.941651 -26.2774 -8.68243 -4.19003 -6.26474 -8.68246 -4.19004 89.0556 -46.8761 -102.867 11.3295 27.9375 -3.36874 35.1074 -14.8494 -100.103 -47.2043 18.0062 -45.3773 -89.5139 -33.5735 75.5725 -4.9914 19.6095 -20.3066 143.111 28.5387 -74.3039 21.2055 -14.0186 -64.8821 28.8067 -4.06796 -11.3783 6.3427 0.664649 1.77657 
-243.859 92.6647 -204.816 90.206 -1.24783 97.6237 -173.669 3.8644 108.027 -61.319 52.3771 23.6647 83.7307 13.0906 3.24433 27.1174 4.61801 -16.4477 146.522 10.8237 97.9102 -98.9187 13.73 6.68668 86.2526 -7.34875 -5.20682 35.0785 -1.15279 9.15822 -4.24826 9.20917 -91.2395 8.38698 -9.02418 -1.89991 -3.25319 -9.09897 -1.49772 -25.9883 -8.0339 -4.53954 -5.97566 -8.03391 -4.53955 89.6969 -45.3408 -102.255 14.443 20.1541 -5.94987 29.0773 -12.4393 -103.505 -46.9947 15.9546 -41.2291 -89.0503 -34.1341 76.5768 -4.45265 21.2873 -19.6109 139.193 32.6363 -71.3565 20.2988 -13.4596 -64.8363 29.001 -1.03717 -7.95782 4.48887 2.10182 0.0669661 
-240.46 93.8404 -201.842 91.2588 -10.2522 98.9149 -168.541 -2.00096 109.489 -52.6987 51.2269 19.3982 74.9606 9.41685 5.24226 38.0743 6.32427 -13.3605 151.891 21.4704 99.4482 -96.6398 15.0518 3.98185 88.3544 -7.64652 -6.36575 22.6999 -3.85648 8.33385 -3.70215 9.24813 -91.272 8.30986 -7.94834 -2.03703 -3.3377 -8.03022 -1.68314 -26.0191 -6.96755 -4.34112 -6.00646 -6.96754 -4.34113 89.9162 -45.1557 -101.948 15.5307 12.3053 -7.10484 19.5704 -7.96189 -107.366 -46.7342 12.2807 -33.3334 -88.9724 -33.5363 76.5435 -5.84248 22.1748 -18.5351 135.568 35.6096 -68.7175 19.7296 -13.1116 -64.8084 29.6496 1.31817 -6.52879 2.01521 3.84307 0.588309 
-236.649 94.426 -198.364 91.6956 -20.1484 99.3643 -164.952 -9.03742 109.165 -40.6767 47.1922 13.6856 65.7533 4.66548 4.78666 50.6717 8.76757 -8.97427 159.127 32.0852 100.936 -91.9283 20.5167 3.08768 86.9945 -6.28517 -3.0275 24.9903 -2.63385 6.3034 -3.09908 9.13049 -91.2909 8.55077 -6.75469 -2.12645 -3.1039 -6.8417 -1.82589 -25.7354 -5.80297 -4.06314 -5.72272 -5.80295 -4.06314 89.8409 -44.6132 -102.213 16.1767 3.75143 -7.61375 13.5772 -1.94112 -108.47 -42.1544 7.64247 -24.8967 -89.4419 -34.3781 75.9415 -6.24228 23.137 -16.6109 132.56 38.7956 -66.3093 19.3007 -12.7694 -64.4714 28.8932 4.34833 -3.64782 1.38469 5.52535 -0.428627 
